<?xml version="1.0" encoding="UTF-8"?>
<svg id="Camada_2" data-name="Camada 2" xmlns="http://www.w3.org/2000/svg" viewBox="0 0 96.33 22.02">
  <defs>
    <style>
      .cls-1 {
        letter-spacing: .01em;
      }

      .cls-2 {
        letter-spacing: .03em;
      }

      .cls-3 {
        font-size: 10.56px;
      }

      .cls-3, .cls-4 {
        font-family: Comfortaa-Regular, Comfortaa;
      }

      .cls-4 {
        font-size: 3.96px;
        letter-spacing: .03em;
      }

      .cls-5 {
        letter-spacing: .03em;
      }
    </style>
  </defs>
  <g id="Layer_1" data-name="Layer 1">
    <g>
      <g>
        <path d="m31.63,6.34c1.07-.74,2.6-1.42,2.8-2.84.01-.09-.12-.25-.22-.19-1.24.77-2.8-.2-4.08-.48-1.17-.25-2.35-.35-3.52-.06-1.01.25-1.92.68-2.62,1.47-.32.36-.52.84-.62,1.31-.05.27-.09.53-.12.8-.04.37-.33.5-.55.77-.35-.26-.74-.54-.85-.62-.49-.36-1.03-.69-1.58-.96-.42-1.28-1.13-2.35-2.3-3.07-.7-.43-1.4-.67-2.18-.91-.38-.12-.77-.24-1.13-.41-.54-.26-.55-.41-.53-.93,0-.09-.09-.24-.2-.21-1.67.4-3.03.99-4.32,2.16-.56.51-.83,1.07-1.28,1.65-.26.33-.62.51-.95.74-.01,0-.02.03-.02.05,0,0,0,0-.01,0-.02-.02-.05-.03-.05,0,0,0-.02.01-.02.02-.47.16-.93.34-1.39.56,0,0,0,0,0,0-.01,0-.02,0-.03,0-.03,0-.04.02-.04.04-.1.05-.19.09-.29.14-1.45.75-2.75,1.77-3.74,3.08-.64.85-2.14,2.45-1.68,3.64.46,1.18,1.59,2,2.64,2.65,1.37.86,2.86,1.5,4.38,2.05,1.29.66,2.67,1.08,4.07,1.25.16,1.01.4,2.01,1.1,2.79.44.5,1.17.8,1.76.38.21.15.43.29.65.41,1.17.67,3.4.44,4.29-.66.66-.8-.1-1.53-.84-1.93-.63-.34-1.29-.61-1.98-.82-.12-.04-.78-.23-1.3-.31.6-.12,1.2-.28,1.79-.5,1.25-.46,2.59-1.17,3.24-2.4.51-.96.48-1.81.16-2.66.41-1.15,1.89-1.25,2.82-1.91.49.58.45,1.65.6,2.36.1.49.23.95.42,1.4.28.65.8,1.32,1.36,1.75.69.53,1.43.86,2.31.87,1.31.02,3.13-.05,3.61,1.52.03.09.18.24.26.13.73-1.01.21-2.31-.43-3.24-1.06-1.54-2.6-2.84-2.2-4.91.33-1.76,1.43-3.01,2.87-4ZM9.84,2.47c1.21-1.04,2.43-1.73,3.96-2.13-.06.21-.12.41.07.6.42.42,1.1.64,1.66.79,1.03.29,2.01.52,2.86,1.22.46.38.89.78,1.18,1.32.06.11.37,1,.52,1.18-.16-.08-.33-.15-.49-.22-1.55-.65-3.21-1.05-4.88-1.23-.83-.09-1.67-.14-2.52-.13.34-.16.6-.5.87-.75.28-.27.57-.54.84-.82.01-.01,0-.04-.02-.03-.34.2-.65.43-.94.69-.28.25-.63.49-.86.79-.02.03.01.09.05.12-.18,0-.35,0-.53.01.22-.12.39-.35.57-.51.2-.18.4-.36.57-.57.02-.02-.03-.06-.05-.05-.24.16-.49.34-.71.54-.18.16-.38.33-.52.53-.01.02,0,.05.03.08-.6.03-1.19.08-1.78.17.18-.22.35-.46.55-.67.29-.31.58-.62.88-.92,0,0,0-.03-.02-.02-.43.19-.76.54-1.09.86-.18.18-.59.51-.63.8-.07.01-.14.03-.21.04.44-.51.84-1.04,1.3-1.54.49-.54.99-.82,1.64-1.14.02,0,0-.04-.02-.04-.73.1-1.25.48-1.76,1-.49.5-1,1.02-1.32,1.65-.01.02,0,.06.02.09-.28.05-.56.12-.84.19.62-.51,1.01-1.35,1.63-1.88Zm-2.93,14.05s0,0,0,0c-1.01-.45-2.05-.86-3.04-1.37,1.04.21,2.14-.41,2.61-1.46.01-.03-.04-.08-.06-.05-.62,1.01-2.01,1.61-3.14,1.18-.09-.05-.18-.1-.27-.16-.64-.39-1.29-.82-1.84-1.34-.56-.54-1.19-1.35-.81-2.17.12-.27.26-.53.41-.78,1.31-2.14,2.99-3.89,5.23-4.94.29.15.74.21.82.28.43.41.79.88,1.11,1.38.64,1.02,1.23,2.15,1.58,3.3.43,1.39.1,2.75-.59,4-.52.96-1.24,1.41-2.02,2.11Zm5.87,4.51c-.34-.15-.64-.62-.8-.95-.31-.65-.44-1.33-.66-2.01,0,0,0,0,0,0,.04,0,.08.01.12.01,0,0-.01.03,0,.05.47,1.18,1.36,2.19,2.4,2.95-.36.08-.69.11-1.06-.06Zm4.57-2.06c.37.16.76.33,1.08.57.9.67.15,1.42-.54,1.7-1.26.52-2.51.66-3.68-.17-1.09-.77-2.18-1.63-2.65-2.93,0-.02-.03-.04-.05-.06.11.01.22.01.32.02.15.29.36.56.6.77.08.07.15,0,.1-.08-.09-.16-.22-.3-.35-.44-.08-.08-.15-.16-.22-.24.08,0,.17,0,.25.01.1.23.36.46.52.61.25.26.51.52.81.73.04.03.04-.03.02-.05-.24-.22-.44-.49-.66-.74-.15-.17-.28-.37-.43-.55.14,0,.29,0,.43,0,.25.49.92.95,1.35,1.24.61.42,1.27.97,1.96,1.25.07.03.04-.08,0-.1-.61-.3-1.2-.84-1.75-1.24-.47-.34-.87-.83-1.35-1.16.07,0,.15,0,.22,0,.31.32.82.53,1.19.75.3.18.59.36.88.55.07.05.15.1.24.11.05,0,0-.07-.02-.08-.22-.08-.44-.32-.63-.46-.23-.17-.49-.32-.73-.47-.07-.04-.13-.09-.2-.13.51.24,1.06.4,1.56.66.52.27,1.02.54,1.52.85.07.04.05-.06.01-.09-.79-.55-1.6-1.06-2.49-1.44,1.25.4,2.58.79,3.59,1.65,0,0,0,0,0,0,0,0,0,0,0,0,.02.02.04.01.05,0,.01-.01.01-.03,0-.06,0,0,0,0,0,0,0,0,0,0,0,0,0,0,0,0,0,0,0,0,0,0,0,0,0,0,0,0,0,0-.48-.55-1.3-.91-1.94-1.24-.32-.16-.69-.33-1.07-.45.72.16,1.46.46,2.06.72Zm-3.45-.9s0,0,0,.01c0,0-.02,0-.03,0,0,0,.02,0,.02,0Zm-.22.02s0,.03.01.05c-.02-.01-.04-.03-.07-.04.02,0,.03,0,.05,0Zm8.73-7.75c-.74.42-2.31.8-2.48,1.8-.14-.33-.33-.67-.54-1.01-.02-.03-.07-.03-.05.01.41.79.87,1.67.67,2.59-.17.78-.56,1.5-1.17,2.03-.94.83-2.12,1.37-3.34,1.66-1.5.36-3.1.62-4.64.36-1.28-.22-2.5-.64-3.7-1.13,1.34-.84,2.36-2.19,2.71-3.69.78.69,1.66,1.4,2.73,1.51.87.09,1.76-.12,1.72-1.17-.03-.82-.43-1.47-1.22-1.74-.41-.14-2.8.46-3.14.9.1-.77.02-1.56-.28-2.33-.49-1.25-1.06-2.49-1.86-3.57-.33-.45-.68-.85-1.12-1.19-.09-.07-.16-.11-.24-.14.17-.07.34-.14.52-.2,2.59-.91,5.41-1.07,8.12-.71,1.53.2,3.09.53,4.51,1.17,1.06.47,1.96,1.08,2.87,1.74.01.02.03.03.04.03,0,0,0,0,0,0,.13.1.27.2.4.29.01.03.03.05.04.08.23.22.4.48.48.83-.12.45-.28.89-.51,1.34,0,.02,0,.04,0,.07-.16.19-.35.35-.56.47Zm-10.14,3.49c-.39-.05-.84-.32-1.19-.5-.14-.07-.27-.14-.41-.22.85.35,1.77.65,2.68.62.06,0,0-.09-.03-.09-.68-.08-1.39-.28-2.03-.51-.18-.06-.36-.14-.54-.22.82.04,1.65.07,2.45.09.04,0,0-.06-.02-.06-.68-.1-1.39-.23-2.1-.28.15-.03.3-.05.45-.07.41-.04.82-.07,1.22-.12.01,0,0-.02,0-.02,0,0-.01,0-.02-.01-.01-.01-.02,0-.01.01-.03-.04-.52-.04-.6-.04-.27.02-.55,0-.82.03-.06,0-.13,0-.2.01,0,0,.01,0,.02,0,.41-.11.82-.21,1.22-.33,0,0,0-.02,0-.02-.81.15-1.62.23-2.39.54,0-.03.01-.06.02-.09.58-.11,1.1-.36,1.65-.54.35-.11.69-.23,1.06-.21.8.03,1.59.85,1.37,1.65-.28,1.06-1.59.85-2.32.55-.49-.2-.89-.48-1.29-.79.25.15.54.26.78.38.3.14.73.37,1.07.32.03,0,0-.06-.03-.06Zm17.04-.38c.91,1.17,2.85,3.02,1.96,4.61-.25-.53-.69-.94-1.23-1.19-1.13-.52-2.35-.1-3.49-.47-1.55-.51-2.51-1.92-2.82-3.48-.08-.41-.11-.87-.19-1.31.46,1.23.8,2.52,1.74,3.53.84.92,2.13,1.31,3.35,1.1.05,0,0-.1-.05-.1-1.78.1-3.2-.86-3.99-2.43-.34-.69-.73-1.4-.94-2.14-.11-.38-.22-.72-.4-1.05.88,1.07,1.11,2.69,2.13,3.68.72.69,1.94,1.48,2.98,1.23.01,0,0-.03-.01-.03-1.84.12-3.12-1.64-3.87-3.05-.26-.49-.49-1.16-.84-1.68.48.4.9.98,1.26,1.4.32.38.63.94,1.09,1.18.03.01.03-.02,0-.03-.3-.23-.49-.62-.72-.92-.25-.34-.53-.66-.8-.98-.31-.37-.75-.95-1.23-1.18.02,0,.04-.02.06-.02.77.28,1.38.67,1.93,1.3.4.45.75.94,1.13,1.41.03.04.1.02.06-.03-.48-.71-.91-1.44-1.53-2.03-.25-.24-.6-.56-.98-.75.28.06.56.12.8.28.09.06.94.63,1.2.82-.04.02.01.08.04.09,0,0,0,0,.02,0,.05.02.04-.05.02-.08,0,0,0,0,0,0,0,0,0,0,0,0-.36-.42-.9-.89-1.49-1.19.49.02.98.11,1.5.13.67.02,1.27-.07,1.9-.32.04-.02-.01-.09-.05-.08-.96.18-1.87.15-2.84.04-.13-.01-.25-.03-.37-.04.53-.15,1.03-.43,1.4-.79,0,0,0-.03-.02-.02-.38.21-.77.34-1.17.44.12-.08.23-.16.34-.24.54-.4,1.06-.85,1.54-1.31.01-.01-.01-.05-.03-.04-.76.43-1.43.95-2.16,1.38.37-.46.7-.97,1.03-1.33.83-.91,1.81-1.57,3.06-1.73,0,0,0-.02,0-.02-2.13-.19-3.05,1.51-4.27,2.84.22-.42.39-.86.54-1.16.29-.62.64-1.2,1.05-1.75.51-.68,1.08-.84,1.81-1.19.02,0,0-.04-.02-.03-.58.14-1.21.19-1.65.65-.39.41-.74.87-1.02,1.36-.51.88-.84,2.01-1.52,2.82,0,0,0,0,0-.01.67-.86.6-2.32.98-3.28.54-1.37,1.18-2.34,2.66-2.74.02,0,0-.05-.02-.05-1.27.07-2.13.86-2.64,2-.35.79-.48,1.68-.68,2.53,0-.03,0-.06,0-.09.11-.99.13-2.04.61-2.94,0-.01-.02-.05-.04-.04-.48.58-.68,1.39-.74,2.14-.03.37-.07.72-.14,1.06-.01-.03-.03-.07-.05-.1-.1-.16-.2-.31-.29-.47-.06-.06-.15-.14-.25-.22.64-.03.51-.92.7-1.6.4-1.47,1.63-2.38,3.08-2.73,1.6-.38,3.09-.1,4.64.38.93.29,1.81.67,2.71.31-.53,1.42-2.63,2.14-3.69,3.09-.98.88-1.79,2.03-1.96,3.37-.15,1.23.1,2.32.86,3.31Z"/>
        <path d="m6.35,10.78c0-.95-.77-1.71-1.71-1.71s-1.71.77-1.71,1.71.77,1.71,1.71,1.71,1.71-.77,1.71-1.71Zm-3.22,0c0-.83.68-1.51,1.51-1.51s1.51.67,1.51,1.51-.68,1.51-1.51,1.51-1.51-.68-1.51-1.51Z"/>
        <path d="m5.75,10.78c0-.66-.53-1.19-1.19-1.19s-1.19.53-1.19,1.19.53,1.19,1.19,1.19,1.19-.53,1.19-1.19Zm-.87.05c-.18,0-.32-.14-.32-.32s.14-.32.32-.32.32.14.32.32-.14.32-.32.32Z"/>
        <path d="m6.86,10.67c.08.7-.27,1.41-.87,1.78-.74.46-1.38.43-2.21.46-.05,0,0,.08.02.09.89.22,1.81.2,2.52-.47.51-.48.8-1.16.58-1.86,0-.02-.04-.04-.04,0Z"/>
        <path d="m14.14,6.9s0,0-.01,0c-.33-.47-1-.81-1.52-.76-.02-.05-.04-.09-.07-.14-.34-.58-1.19-.79-1.8-.8-.03,0,0,.04.01.05.47.12.93.27,1.32.56.6.44.44,1.12-.12,1.43-.32-.45-1.01-.78-1.54-.86-.04,0,0,.06,0,.07.36.19.76.33,1.07.6.15.13.45.38.41.61-.05.22-.16.4-.23.61-.02.06.08.23.15.16.3-.31.36-.62.28-.89.24.11.49.19.69.37.32.28.58.68.3,1.09-.13.18-.28.25-.44.38-.25-.23-.58-.4-.89-.54,0,0-.02-.01-.02-.01,0,0-.01,0-.02,0-.07,0,0,.09.01.11.36.25,1.12.65.99,1.19-.08.32-.26.61-.32.94,0,.04.07.16.12.11.34-.32.66-.93.43-1.4-.04-.09-.1-.17-.16-.24.39.06.99.31,1.17.67.15.3.15.49,0,.78-.05.11-.09.21-.13.32,0,.03.05.1.08.07.43-.38.55-.91.17-1.38-.19-.24-.58-.54-.95-.61.32-.24.44-.75.21-1.12-.04-.07-.09-.13-.14-.2.04,0,.09,0,.15,0,.27,0,.54.08.77.22.26.16.51.41.58.72.1.42-.13.63-.35.91-.03.04.05.13.1.1.48-.34.55-.9.28-1.37.01,0,.02.01.03.01.55,0,.87-.76.6-1.2-.24-.38-.78-.74-1.24-.59Zm-.19,1.08s-.02-.01-.03-.01c-.3-.11-.53-.09-.84-.07,0,0,0,0,0,0-.12-.13-.26-.25-.43-.33-.1-.05-.28-.16-.45-.21.39-.24.58-.64.46-1.08.36.1.71.16,1.01.42.18.15.51.48.45.75-.04.18-.11.33-.18.49,0,0,0,.02,0,.04Zm.76.57s-.01.02-.01.03c-.03-.04-.06-.09-.1-.13-.14-.17-.32-.31-.51-.41.31-.32.31-.68.14-1,.33,0,.84.18.98.49.22.48-.2.75-.5,1.02Z"/>
        <path d="m14.54,3.95c.21-.04.39-.22.54-.36.15-.14.29-.26.46-.37.01,0-.01-.04-.03-.03-.1.06-.22.07-.31.12-.08.05-.16.1-.23.15-.17.11-.38.21-.53.34-.06.05.04.16.1.15Z"/>
      </g>
      <g>
        <text class="cls-3" transform="translate(37.97 10.62)"><tspan class="cls-5" x="0" y="0">AquaVi</tspan><tspan class="cls-1" x="41.71" y="0">e</tspan><tspan class="cls-2" x="48.31" y="0">w</tspan></text>
        <rect x="35.25" y="14.26" width="61.08" height=".12"/>
        <text class="cls-4" transform="translate(37.68 19.07)"><tspan x="0" y="0">Cuidando do seu aquário</tspan></text>
      </g>
    </g>
  </g>
</svg>