<?xml version="1.0" encoding="UTF-8"?>
<svg id="Camada_2" data-name="Camada 2" xmlns="http://www.w3.org/2000/svg" viewBox="0 0 92.52 78.71">
  <defs>
    <style>
      .cls-1, .cls-2, .cls-3 {
        fill: #fff;
      }

      .cls-4 {
        letter-spacing: .03em;
      }

      .cls-2 {
        font-size: 6px;
        letter-spacing: .03em;
      }

      .cls-2, .cls-3 {
        font-family: Comfortaa-Regular, Comfortaa;
      }

      .cls-5 {
        letter-spacing: .01em;
      }

      .cls-3 {
        font-size: 16px;
      }

      .cls-6 {
        letter-spacing: .03em;
      }
    </style>
  </defs>
  <g id="Layer_1" data-name="Layer 1">
    <g>
      <g>
        <path class="cls-1" d="m83.17,13.9c2.36-1.62,5.7-3.11,6.14-6.24.03-.21-.26-.56-.47-.42-2.72,1.7-6.14-.44-8.96-1.05-2.56-.56-5.15-.76-7.72-.12-2.22.55-4.21,1.48-5.74,3.23-.7.79-1.15,1.84-1.36,2.88-.12.59-.2,1.17-.27,1.77-.09.82-.71,1.11-1.21,1.68-.76-.58-1.61-1.18-1.87-1.37-1.08-.8-2.26-1.5-3.47-2.11-.91-2.81-2.49-5.15-5.05-6.73-1.54-.95-3.06-1.46-4.78-1.99-.84-.26-1.69-.52-2.48-.91-1.18-.57-1.22-.91-1.17-2.05,0-.21-.2-.52-.44-.47-3.66.87-6.64,2.18-9.47,4.75-1.23,1.12-1.83,2.35-2.82,3.62-.57.73-1.35,1.11-2.09,1.63-.03.02-.04.06-.05.11-.01,0-.02,0-.03.01-.05-.04-.1-.06-.12.01-.02.01-.03.03-.05.04-1.03.35-2.05.76-3.04,1.23,0,0,0,0-.01,0-.02,0-.05,0-.07-.01-.07-.01-.09.04-.08.09-.21.1-.42.2-.63.31-3.18,1.65-6.04,3.89-8.21,6.76-1.41,1.86-4.69,5.37-3.68,7.98,1.01,2.59,3.5,4.39,5.78,5.81,3.01,1.88,6.28,3.28,9.6,4.51,2.83,1.45,5.85,2.36,8.93,2.74.36,2.22.87,4.41,2.41,6.13.97,1.09,2.58,1.75,3.87.84.46.32.94.63,1.42.9,2.57,1.48,7.45.97,9.42-1.44,1.44-1.77-.23-3.35-1.85-4.23-1.38-.74-2.84-1.35-4.35-1.79-.27-.08-1.7-.49-2.86-.68,1.32-.26,2.63-.62,3.92-1.09,2.75-1.01,5.67-2.56,7.1-5.27,1.11-2.1,1.05-3.97.35-5.83.91-2.53,4.16-2.73,6.19-4.19,1.09,1.27.98,3.62,1.31,5.17.23,1.07.49,2.07.93,3.08.62,1.43,1.75,2.89,2.98,3.85,1.5,1.17,3.13,1.88,5.06,1.91,2.88.05,6.87-.12,7.91,3.33.06.19.39.52.56.28,1.61-2.21.46-5.07-.95-7.11-2.33-3.37-5.69-6.24-4.84-10.77.73-3.86,3.14-6.61,6.3-8.79ZM35.38,5.43c2.66-2.28,5.34-3.8,8.68-4.67-.13.46-.26.89.16,1.31.93.92,2.41,1.39,3.63,1.73,2.26.63,4.4,1.15,6.27,2.67,1.01.82,1.96,1.72,2.58,2.89.13.24.82,2.2,1.14,2.59-.36-.17-.72-.34-1.08-.49-3.4-1.44-7.05-2.31-10.72-2.71-1.82-.2-3.67-.3-5.53-.28.75-.35,1.31-1.09,1.91-1.64.62-.58,1.24-1.19,1.83-1.81.02-.02-.02-.08-.05-.06-.74.43-1.43.94-2.07,1.51-.62.55-1.38,1.09-1.9,1.74-.05.07.03.2.12.26-.39,0-.77.01-1.16.03.49-.25.86-.76,1.26-1.13.44-.4.88-.79,1.26-1.25.03-.04-.06-.14-.1-.11-.53.36-1.08.74-1.55,1.18-.39.36-.83.71-1.13,1.15-.03.04,0,.12.06.17-1.31.06-2.61.18-3.9.37.4-.49.77-1.01,1.21-1.47.63-.68,1.27-1.35,1.92-2.01.02-.02-.01-.06-.04-.05-.94.42-1.66,1.18-2.38,1.89-.39.39-1.29,1.13-1.37,1.75-.15.03-.3.06-.45.08.96-1.12,1.84-2.28,2.84-3.37,1.09-1.19,2.17-1.8,3.6-2.5.04-.02-.01-.08-.04-.08-1.61.23-2.74,1.05-3.86,2.19-1.07,1.09-2.2,2.25-2.9,3.63-.02.05,0,.13.05.19-.62.12-1.24.26-1.85.41,1.37-1.12,2.21-2.95,3.57-4.12Zm-6.43,30.82s0,0,0,.01c-2.22-.99-4.5-1.89-6.66-3.01,2.29.46,4.69-.91,5.72-3.21.03-.06-.08-.18-.12-.11-1.35,2.22-4.4,3.54-6.89,2.6-.2-.12-.4-.23-.59-.35-1.39-.87-2.84-1.79-4.03-2.93-1.23-1.18-2.61-2.96-1.77-4.76.27-.59.57-1.16.91-1.71,2.86-4.69,6.56-8.53,11.47-10.83.64.34,1.63.45,1.8.62.95.9,1.73,1.93,2.43,3.03,1.41,2.25,2.69,4.71,3.47,7.25.94,3.04.21,6.03-1.29,8.77-1.15,2.1-2.73,3.1-4.43,4.64Zm12.87,9.9c-.75-.34-1.41-1.37-1.75-2.08-.68-1.43-.97-2.92-1.45-4.41,0,0,0,0,0,0,.09,0,.17.02.26.03-.02.02-.03.06,0,.12,1.03,2.58,2.99,4.8,5.26,6.47-.8.18-1.51.24-2.32-.13Zm10.02-4.52c.81.36,1.66.73,2.38,1.26,1.98,1.46.33,3.11-1.18,3.74-2.76,1.15-5.5,1.45-8.08-.37-2.4-1.69-4.79-3.58-5.8-6.43-.02-.05-.07-.1-.12-.13.24.02.47.03.71.05.33.63.79,1.23,1.32,1.7.17.15.34.02.23-.18-.2-.36-.48-.66-.76-.96-.17-.17-.33-.35-.49-.53.18.01.36.02.55.03.21.51.79,1,1.13,1.35.56.56,1.12,1.14,1.77,1.59.09.06.08-.07.03-.12-.53-.48-.97-1.07-1.44-1.62-.33-.38-.62-.81-.94-1.2.32,0,.64,0,.95,0,.55,1.09,2.02,2.07,2.96,2.73,1.34.93,2.79,2.13,4.31,2.74.14.06.08-.17,0-.21-1.33-.65-2.63-1.85-3.84-2.72-1.04-.74-1.92-1.82-2.97-2.55.16,0,.32,0,.48-.02.68.69,1.8,1.16,2.6,1.63.66.39,1.3.79,1.94,1.2.15.1.34.23.53.24.11,0,.01-.16-.04-.18-.48-.19-.97-.71-1.39-1.02-.51-.38-1.07-.7-1.61-1.04-.15-.09-.29-.19-.44-.28,1.11.52,2.32.88,3.42,1.45,1.14.6,2.24,1.19,3.34,1.87.15.09.11-.13.02-.19-1.72-1.21-3.52-2.33-5.45-3.16,2.75.89,5.65,1.74,7.88,3.62,0,0,0,0,.01,0,0,0,0,0,0,0,.05.03.09.03.1,0,.03-.02.03-.07,0-.13,0,0,0,0,0-.01,0,0,0,0,0,0,0,0-.01-.01-.02-.02,0,0,0,0,0,0,0,0,0,0,0,0-1.04-1.21-2.86-2-4.25-2.72-.7-.36-1.51-.71-2.34-.99,1.59.36,3.21,1.01,4.52,1.59Zm-7.57-1.98s0,.02.01.03c-.02,0-.04-.01-.06-.02.02,0,.03,0,.05,0Zm-.49.05s.02.07.03.1c-.05-.03-.1-.06-.14-.09.04,0,.07,0,.11-.01Zm19.14-17c-1.63.92-5.07,1.76-5.44,3.95-.32-.73-.72-1.46-1.19-2.21-.05-.07-.16-.08-.11.03.9,1.73,1.9,3.66,1.46,5.68-.37,1.72-1.23,3.28-2.56,4.46-2.06,1.83-4.65,2.99-7.32,3.64-3.28.8-6.8,1.36-10.17.78-2.81-.48-5.48-1.41-8.11-2.48,2.94-1.83,5.17-4.81,5.95-8.1,1.7,1.51,3.63,3.08,5.99,3.31,1.91.19,3.86-.27,3.78-2.57-.06-1.8-.95-3.22-2.68-3.81-.89-.3-6.13,1.02-6.89,1.98.22-1.69.05-3.43-.61-5.12-1.07-2.74-2.34-5.45-4.08-7.83-.73-.99-1.48-1.86-2.45-2.61-.19-.15-.35-.24-.52-.31.37-.15.76-.3,1.14-.44,5.68-1.99,11.87-2.35,17.82-1.56,3.36.45,6.77,1.17,9.88,2.56,2.32,1.04,4.31,2.37,6.3,3.82.03.04.07.06.1.07,0,0,0,0,0,0,.29.21.59.43.88.64.02.06.06.12.09.18.5.48.88,1.05,1.05,1.81-.26.99-.61,1.95-1.11,2.93-.02.04-.01.1.01.14-.35.42-.77.77-1.24,1.04Zm-22.24,7.67c-.86-.11-1.84-.71-2.61-1.09-.3-.15-.6-.31-.89-.47,1.86.77,3.88,1.43,5.87,1.35.13,0,.01-.2-.07-.21-1.49-.18-3.04-.62-4.46-1.11-.39-.14-.78-.31-1.18-.48,1.79.1,3.61.16,5.38.19.09,0,0-.13-.05-.14-1.49-.23-3.05-.51-4.6-.61.33-.06.66-.11,1-.15.9-.1,1.8-.16,2.68-.27.03,0,0-.04,0-.05-.01,0-.02-.02-.03-.03-.03-.02-.04,0-.02.03-.07-.08-1.13-.09-1.32-.08-.6.04-1.21.01-1.81.06-.14,0-.29.02-.44.03.01,0,.03,0,.04-.01.89-.25,1.79-.46,2.67-.73.02,0,0-.04-.02-.04-1.77.32-3.56.51-5.24,1.17.01-.07.02-.14.03-.2,1.26-.24,2.41-.8,3.63-1.18.76-.24,1.52-.5,2.33-.46,1.75.07,3.48,1.86,3.02,3.62-.61,2.32-3.49,1.86-5.09,1.2-1.07-.44-1.96-1.06-2.83-1.74.55.32,1.17.57,1.71.82.65.3,1.61.82,2.36.71.07-.01-.02-.13-.06-.14Zm37.38-.83c1.99,2.58,6.26,6.63,4.29,10.1-.55-1.15-1.51-2.07-2.69-2.61-2.49-1.14-5.15-.21-7.65-1.03-3.41-1.12-5.51-4.21-6.18-7.63-.17-.89-.24-1.9-.42-2.88,1,2.71,1.76,5.52,3.81,7.75,1.85,2.01,4.67,2.88,7.35,2.41.11-.02-.02-.22-.1-.22-3.9.23-7.03-1.88-8.74-5.33-.75-1.51-1.59-3.07-2.06-4.69-.24-.84-.49-1.57-.87-2.29,1.93,2.36,2.43,5.9,4.68,8.07,1.57,1.51,4.25,3.26,6.53,2.69.03,0,0-.06-.03-.06-4.04.26-6.83-3.61-8.48-6.7-.57-1.07-1.07-2.55-1.85-3.68,1.06.87,1.98,2.15,2.75,3.06.7.83,1.38,2.07,2.38,2.6.06.03.06-.05.02-.07-.67-.51-1.08-1.36-1.57-2.02-.55-.75-1.16-1.44-1.77-2.15-.69-.82-1.64-2.09-2.71-2.59.04-.02.08-.03.12-.05,1.69.6,3.02,1.46,4.23,2.85.87,1,1.65,2.06,2.49,3.08.07.09.21.05.13-.07-1.05-1.55-1.99-3.15-3.37-4.45-.55-.52-1.32-1.23-2.15-1.64.61.13,1.22.27,1.75.62.2.13,2.06,1.38,2.63,1.79-.09.03.02.18.08.2.01,0,.02,0,.03.01.12.04.1-.11.05-.17,0,0-.01-.01-.02-.02,0,0,0,0,0,0-.78-.91-1.98-1.95-3.27-2.61,1.07.04,2.14.25,3.29.29,1.46.05,2.79-.16,4.16-.7.1-.04-.03-.2-.1-.18-2.11.38-4.1.33-6.22.09-.28-.03-.54-.06-.8-.09,1.16-.34,2.27-.94,3.08-1.74.02-.02-.02-.06-.04-.05-.83.47-1.69.74-2.56.96.25-.17.5-.35.74-.52,1.19-.87,2.33-1.86,3.39-2.88.03-.03-.03-.1-.06-.08-1.67.95-3.13,2.08-4.73,3.03.82-1,1.54-2.13,2.27-2.93,1.82-2,3.98-3.44,6.71-3.8.02,0,0-.04-.02-.04-4.66-.41-6.69,3.32-9.37,6.23.48-.93.87-1.88,1.18-2.55.63-1.36,1.41-2.63,2.3-3.83,1.11-1.5,2.36-1.85,3.97-2.62.04-.02,0-.08-.04-.07-1.27.31-2.66.42-3.62,1.43-.86.89-1.62,1.91-2.24,2.98-1.12,1.93-1.85,4.42-3.33,6.18,0,0,0-.02,0-.02,1.47-1.89,1.33-5.08,2.16-7.19,1.18-2.99,2.59-5.13,5.83-6.01.05-.01,0-.11-.05-.1-2.79.15-4.68,1.89-5.78,4.39-.76,1.73-1.04,3.68-1.49,5.54,0-.07.01-.13.02-.2.23-2.17.28-4.48,1.34-6.44.02-.03-.05-.12-.08-.08-1.04,1.28-1.49,3.05-1.61,4.69-.06.81-.16,1.58-.31,2.33-.03-.07-.07-.14-.11-.21-.21-.34-.45-.68-.63-1.04-.13-.13-.32-.3-.54-.48,1.41-.07,1.13-2.01,1.54-3.52.88-3.21,3.58-5.22,6.75-5.98,3.52-.84,6.79-.22,10.18.82,2.05.63,3.97,1.46,5.95.69-1.15,3.12-5.78,4.7-8.1,6.78-2.16,1.93-3.93,4.45-4.3,7.4-.34,2.69.22,5.1,1.89,7.26Z"/>
        <path class="cls-1" d="m27.71,23.65c0-2.08-1.68-3.76-3.76-3.76s-3.76,1.68-3.76,3.76,1.68,3.76,3.76,3.76,3.76-1.68,3.76-3.76Zm-7.07,0c0-1.83,1.48-3.31,3.31-3.31s3.31,1.48,3.31,3.31-1.48,3.31-3.31,3.31-3.31-1.48-3.31-3.31Z"/>
        <path class="cls-1" d="m26.4,23.65c0-1.44-1.17-2.61-2.61-2.61s-2.61,1.17-2.61,2.61,1.17,2.61,2.61,2.61,2.61-1.17,2.61-2.61Zm-1.91.11c-.38,0-.7-.31-.7-.7s.31-.7.7-.7.7.31.7.7-.31.7-.7.7Z"/>
        <path class="cls-1" d="m28.82,23.41c.17,1.55-.59,3.09-1.91,3.91-1.61,1-3.03.94-4.85,1.02-.11,0-.02.17.05.19,1.96.49,3.96.44,5.53-1.03,1.13-1.05,1.76-2.55,1.28-4.07-.01-.03-.09-.09-.09-.02Z"/>
        <path class="cls-1" d="m44.79,15.13s-.02,0-.02,0c-.73-1.02-2.2-1.79-3.33-1.67-.04-.1-.09-.2-.15-.31-.74-1.28-2.61-1.73-3.96-1.75-.06,0-.01.09.02.1,1.04.26,2.03.6,2.91,1.24,1.32.97.97,2.46-.26,3.15-.71-.99-2.22-1.71-3.39-1.88-.09-.01-.02.13.02.15.79.42,1.67.72,2.36,1.32.33.28,1,.82.89,1.34-.1.47-.36.88-.5,1.35-.04.13.18.51.34.35.65-.69.79-1.36.62-1.96.52.24,1.07.42,1.51.8.71.61,1.28,1.49.65,2.39-.28.4-.62.56-.97.84-.55-.51-1.27-.88-1.95-1.17-.02-.01-.04-.03-.05-.03-.01,0-.02,0-.03,0-.15-.02-.02.2.03.24.79.55,2.47,1.43,2.17,2.61-.18.71-.58,1.34-.7,2.07-.01.1.16.34.27.24.75-.7,1.45-2.03.95-3.06-.09-.19-.21-.36-.34-.53.85.13,2.16.67,2.56,1.47.33.66.33,1.08,0,1.71-.12.24-.2.46-.28.71-.02.07.11.22.18.16.93-.82,1.2-2,.37-3.02-.43-.52-1.28-1.19-2.09-1.35.71-.53.97-1.64.46-2.46-.09-.15-.19-.3-.3-.44.09.01.19,0,.33.01.59.02,1.18.17,1.68.49.56.36,1.11.91,1.28,1.58.23.92-.29,1.38-.78,1.99-.07.09.12.29.21.22,1.06-.74,1.2-1.98.62-3.01.02.02.05.03.07.03,1.21.01,1.91-1.66,1.31-2.64-.52-.83-1.71-1.61-2.72-1.29Zm-.42,2.38s-.05-.02-.07-.03c-.66-.25-1.16-.19-1.84-.15,0,0,0,0-.01,0-.27-.29-.58-.55-.94-.73-.23-.12-.62-.35-.98-.46.86-.52,1.28-1.41,1.02-2.36.79.21,1.57.36,2.22.92.39.34,1.12,1.06,1,1.65-.08.4-.23.72-.39,1.08,0,.02,0,.05,0,.08Zm1.66,1.25s-.03.04-.03.07c-.06-.1-.13-.19-.21-.28-.31-.36-.7-.67-1.13-.9.68-.7.68-1.49.3-2.2.72,0,1.83.4,2.15,1.07.49,1.05-.43,1.65-1.09,2.24Z"/>
        <path class="cls-1" d="m45.69,8.66c.45-.09.86-.48,1.18-.79.32-.32.64-.57,1.02-.81.03-.02-.02-.09-.06-.07-.22.12-.47.15-.69.27-.18.1-.34.21-.51.32-.37.24-.84.46-1.16.76-.12.11.09.36.22.33Z"/>
      </g>
      <text class="cls-3" transform="translate(4.12 63.82)"><tspan class="cls-4" x="0" y="0">AquaVi</tspan><tspan class="cls-5" x="63.18" y="0">e</tspan><tspan class="cls-6" x="73.17" y="0">w</tspan></text>
      <rect class="cls-1" y="69.34" width="92.52" height=".19"/>
      <text class="cls-2" transform="translate(3.67 76.63)"><tspan x="0" y="0">Cuidando do seu aquário</tspan></text>
    </g>
  </g>
</svg>